<mxfile host="app.diagrams.net" agent="Mozilla/5.0 (Windows NT 10.0; Win64; x64; rv:136.0) Gecko/20100101 Firefox/136.0" version="26.1.0">
  <diagram name="Page-1" id="94zlfrUzXIqlw__cJvrj">
    <mxGraphModel dx="5300" dy="558" grid="1" gridSize="10" guides="1" tooltips="1" connect="1" arrows="1" fold="1" page="1" pageScale="1" pageWidth="850" pageHeight="1100" math="0" shadow="0">
      <root>
        <mxCell id="0" />
        <mxCell id="1" parent="0" />
        <mxCell id="IoyzmSl2ti7aRHbYRKtc-21" style="edgeStyle=orthogonalEdgeStyle;rounded=0;orthogonalLoop=1;jettySize=auto;html=1;entryX=0;entryY=0.5;entryDx=0;entryDy=0;exitX=0.5;exitY=0.5;exitDx=0;exitDy=0;exitPerimeter=0;" parent="1" source="IoyzmSl2ti7aRHbYRKtc-3" target="IoyzmSl2ti7aRHbYRKtc-10" edge="1">
          <mxGeometry relative="1" as="geometry" />
        </mxCell>
        <mxCell id="IoyzmSl2ti7aRHbYRKtc-43" style="edgeStyle=orthogonalEdgeStyle;rounded=0;orthogonalLoop=1;jettySize=auto;html=1;entryX=0;entryY=0.5;entryDx=0;entryDy=0;" parent="1" source="IoyzmSl2ti7aRHbYRKtc-3" target="IoyzmSl2ti7aRHbYRKtc-9" edge="1">
          <mxGeometry relative="1" as="geometry" />
        </mxCell>
        <mxCell id="IoyzmSl2ti7aRHbYRKtc-44" style="edgeStyle=orthogonalEdgeStyle;rounded=0;orthogonalLoop=1;jettySize=auto;html=1;entryX=0;entryY=0.5;entryDx=0;entryDy=0;" parent="1" source="IoyzmSl2ti7aRHbYRKtc-3" target="IoyzmSl2ti7aRHbYRKtc-13" edge="1">
          <mxGeometry relative="1" as="geometry" />
        </mxCell>
        <mxCell id="IoyzmSl2ti7aRHbYRKtc-46" style="edgeStyle=orthogonalEdgeStyle;rounded=0;orthogonalLoop=1;jettySize=auto;html=1;entryX=0;entryY=0.5;entryDx=0;entryDy=0;" parent="1" source="IoyzmSl2ti7aRHbYRKtc-3" target="IoyzmSl2ti7aRHbYRKtc-15" edge="1">
          <mxGeometry relative="1" as="geometry" />
        </mxCell>
        <mxCell id="IoyzmSl2ti7aRHbYRKtc-3" value="&lt;div&gt;Student&lt;/div&gt;&lt;div&gt;&lt;br&gt;&lt;/div&gt;" style="shape=umlActor;verticalLabelPosition=bottom;verticalAlign=top;html=1;outlineConnect=0;" parent="1" vertex="1">
          <mxGeometry x="-3480" y="760" width="40" height="80" as="geometry" />
        </mxCell>
        <mxCell id="IoyzmSl2ti7aRHbYRKtc-9" value="&lt;div&gt;Login &amp;amp; Profile Management&lt;/div&gt;&lt;div&gt;&lt;br&gt;&lt;/div&gt;" style="ellipse;whiteSpace=wrap;html=1;" parent="1" vertex="1">
          <mxGeometry x="-3160" y="490" width="120" height="70" as="geometry" />
        </mxCell>
        <mxCell id="IoyzmSl2ti7aRHbYRKtc-10" value="&lt;div&gt;Search for Textbooks&lt;/div&gt;&lt;div&gt;&lt;br&gt;&lt;/div&gt;" style="ellipse;whiteSpace=wrap;html=1;" parent="1" vertex="1">
          <mxGeometry x="-3160" y="600" width="120" height="80" as="geometry" />
        </mxCell>
        <mxCell id="IoyzmSl2ti7aRHbYRKtc-13" value="&lt;div&gt;Reserve Textbook&lt;/div&gt;&lt;div&gt;(Place on hold)&lt;/div&gt;&lt;div&gt;&lt;br&gt;&lt;/div&gt;" style="ellipse;whiteSpace=wrap;html=1;" parent="1" vertex="1">
          <mxGeometry x="-3160" y="720" width="120" height="80" as="geometry" />
        </mxCell>
        <mxCell id="IoyzmSl2ti7aRHbYRKtc-14" value="&lt;div&gt;Borrow Textbook / Check out&lt;/div&gt;&lt;div&gt;&lt;br&gt;&lt;/div&gt;" style="ellipse;whiteSpace=wrap;html=1;" parent="1" vertex="1">
          <mxGeometry x="-3160" y="840" width="120" height="80" as="geometry" />
        </mxCell>
        <mxCell id="IoyzmSl2ti7aRHbYRKtc-15" value="&lt;div&gt;Borrow Textbook / Check out&lt;/div&gt;&lt;div&gt;&lt;br&gt;&lt;/div&gt;" style="ellipse;whiteSpace=wrap;html=1;" parent="1" vertex="1">
          <mxGeometry x="-3160" y="970" width="120" height="80" as="geometry" />
        </mxCell>
        <mxCell id="IoyzmSl2ti7aRHbYRKtc-19" value="Return Textbook / check in" style="ellipse;whiteSpace=wrap;html=1;" parent="1" vertex="1">
          <mxGeometry x="-3150" y="1100" width="120" height="80" as="geometry" />
        </mxCell>
        <mxCell id="IoyzmSl2ti7aRHbYRKtc-20" value="&lt;div&gt;Receive Overdue Notifications&lt;/div&gt;&lt;div&gt;&lt;br&gt;&lt;/div&gt;" style="ellipse;whiteSpace=wrap;html=1;" parent="1" vertex="1">
          <mxGeometry x="-3150" y="1230" width="120" height="80" as="geometry" />
        </mxCell>
        <mxCell id="IoyzmSl2ti7aRHbYRKtc-33" style="edgeStyle=orthogonalEdgeStyle;rounded=0;orthogonalLoop=1;jettySize=auto;html=1;entryX=1;entryY=0.5;entryDx=0;entryDy=0;" parent="1" source="IoyzmSl2ti7aRHbYRKtc-27" target="IoyzmSl2ti7aRHbYRKtc-28" edge="1">
          <mxGeometry relative="1" as="geometry" />
        </mxCell>
        <mxCell id="IoyzmSl2ti7aRHbYRKtc-39" style="edgeStyle=orthogonalEdgeStyle;rounded=0;orthogonalLoop=1;jettySize=auto;html=1;entryX=1;entryY=0.5;entryDx=0;entryDy=0;" parent="1" source="IoyzmSl2ti7aRHbYRKtc-27" target="IoyzmSl2ti7aRHbYRKtc-29" edge="1">
          <mxGeometry relative="1" as="geometry" />
        </mxCell>
        <mxCell id="IoyzmSl2ti7aRHbYRKtc-41" style="edgeStyle=orthogonalEdgeStyle;rounded=0;orthogonalLoop=1;jettySize=auto;html=1;entryX=1;entryY=0.5;entryDx=0;entryDy=0;" parent="1" source="IoyzmSl2ti7aRHbYRKtc-27" target="IoyzmSl2ti7aRHbYRKtc-31" edge="1">
          <mxGeometry relative="1" as="geometry" />
        </mxCell>
        <mxCell id="IoyzmSl2ti7aRHbYRKtc-27" value="&lt;div&gt;Administrator&lt;/div&gt;&lt;div&gt;&lt;br&gt;&lt;/div&gt;" style="shape=umlActor;verticalLabelPosition=bottom;verticalAlign=top;html=1;outlineConnect=0;" parent="1" vertex="1">
          <mxGeometry x="-2310" y="740" width="30" height="60" as="geometry" />
        </mxCell>
        <mxCell id="IoyzmSl2ti7aRHbYRKtc-28" value="&lt;div&gt;Manage Inventory(Add/Remove Books)&lt;/div&gt;" style="ellipse;whiteSpace=wrap;html=1;" parent="1" vertex="1">
          <mxGeometry x="-2770" y="490" width="120" height="80" as="geometry" />
        </mxCell>
        <mxCell id="IoyzmSl2ti7aRHbYRKtc-29" value="&lt;div&gt;Generate Reports&lt;/div&gt;&lt;div&gt;(Loans &amp;amp; Usage Stats)&lt;/div&gt;" style="ellipse;whiteSpace=wrap;html=1;" parent="1" vertex="1">
          <mxGeometry x="-2770" y="630" width="120" height="80" as="geometry" />
        </mxCell>
        <mxCell id="IoyzmSl2ti7aRHbYRKtc-30" value="Ensure Compliance (Data Security)" style="ellipse;whiteSpace=wrap;html=1;" parent="1" vertex="1">
          <mxGeometry x="-2770" y="780" width="120" height="80" as="geometry" />
        </mxCell>
        <mxCell id="IoyzmSl2ti7aRHbYRKtc-31" value="&lt;div&gt;System Maintenance &amp;amp; Performance&lt;/div&gt;&lt;div&gt;&lt;br&gt;&lt;/div&gt;" style="ellipse;whiteSpace=wrap;html=1;" parent="1" vertex="1">
          <mxGeometry x="-2780" y="930" width="120" height="80" as="geometry" />
        </mxCell>
        <mxCell id="IoyzmSl2ti7aRHbYRKtc-40" style="edgeStyle=orthogonalEdgeStyle;rounded=0;orthogonalLoop=1;jettySize=auto;html=1;entryX=1.025;entryY=0.613;entryDx=0;entryDy=0;entryPerimeter=0;" parent="1" source="IoyzmSl2ti7aRHbYRKtc-27" target="IoyzmSl2ti7aRHbYRKtc-30" edge="1">
          <mxGeometry relative="1" as="geometry" />
        </mxCell>
        <mxCell id="IoyzmSl2ti7aRHbYRKtc-42" value="&lt;div&gt;Text Book Loan Program&lt;/div&gt;&lt;div&gt;&lt;br&gt;&lt;/div&gt;" style="shape=process;whiteSpace=wrap;html=1;backgroundOutline=1;" parent="1" vertex="1">
          <mxGeometry x="-3270" y="370" width="700" height="60" as="geometry" />
        </mxCell>
        <mxCell id="IoyzmSl2ti7aRHbYRKtc-45" style="edgeStyle=orthogonalEdgeStyle;rounded=0;orthogonalLoop=1;jettySize=auto;html=1;entryX=0.025;entryY=0.388;entryDx=0;entryDy=0;entryPerimeter=0;" parent="1" source="IoyzmSl2ti7aRHbYRKtc-3" target="IoyzmSl2ti7aRHbYRKtc-14" edge="1">
          <mxGeometry relative="1" as="geometry" />
        </mxCell>
        <mxCell id="IoyzmSl2ti7aRHbYRKtc-47" style="edgeStyle=orthogonalEdgeStyle;rounded=0;orthogonalLoop=1;jettySize=auto;html=1;entryX=0;entryY=0.6;entryDx=0;entryDy=0;entryPerimeter=0;" parent="1" source="IoyzmSl2ti7aRHbYRKtc-3" target="IoyzmSl2ti7aRHbYRKtc-19" edge="1">
          <mxGeometry relative="1" as="geometry" />
        </mxCell>
        <mxCell id="IoyzmSl2ti7aRHbYRKtc-48" style="edgeStyle=orthogonalEdgeStyle;rounded=0;orthogonalLoop=1;jettySize=auto;html=1;entryX=0;entryY=0.625;entryDx=0;entryDy=0;entryPerimeter=0;" parent="1" source="IoyzmSl2ti7aRHbYRKtc-3" target="IoyzmSl2ti7aRHbYRKtc-20" edge="1">
          <mxGeometry relative="1" as="geometry" />
        </mxCell>
      </root>
    </mxGraphModel>
  </diagram>
</mxfile>
